<svg id="Layer_1" xmlns="http://www.w3.org/2000/svg" viewBox="0 0 304.7 49.2"><style>.st0{fill:#0092d0}.st1{fill:#00a060}</style><path class="st0" d="M301.4 26.8h.4v-2.9l1 2.9h.5l1-2.9v2.8h.4v-3.5h-.7l-1 2.9-1-2.9h-.7v3.6zm-3.3-1.1c0 .4.1.7.3.9.2.2.6.3 1 .3s.7-.1.9-.2c.3-.2.4-.4.4-.8 0-.3-.1-.5-.3-.7-.1-.1-.3-.2-.5-.2l-.5-.1c-.3-.1-.5-.1-.6-.2-.1-.1-.2-.2-.2-.4s.1-.3.2-.4c.1-.1.3-.2.6-.2s.6.1.7.3c.1.1.1.2.1.4h.4c0-.4-.1-.7-.4-.8-.2-.2-.5-.3-.9-.3s-.7.1-.9.3c-.2.2-.3.5-.3.8 0 .3.1.5.3.6.1.1.3.2.6.2l.4.1c.2.1.4.1.5.2.1.1.2.2.2.4 0 .3-.1.4-.4.5-.1 0-.3.1-.5.1-.4 0-.6-.1-.8-.3-.1-.1-.1-.3-.1-.5h-.2zM17.5 0L0 16.9v13.5l17.5-16.9zm-3.1 19L0 32.9v13.4l14.4-13.8zM0 48.8l10.9-10.5v10.5z"/><path class="st1" d="M18.9 0l17.5 16.9v13.5L18.9 13.5zM22 19l14.4 13.9v13.4L22 32.5zm14.4 29.8L25.5 38.3v10.5z"/><path class="st0" d="M71.2 31.6c-.1 4.4-.4 8.1-3 11.8-2.9 4.1-7.2 5.9-12.2 5.9-9.3 0-15.7-6.4-15.7-15.8 0-9.7 6.5-16.1 16-16.1 6.1 0 10.7 2.8 13.3 8.4l-7.3 3.1c-1.1-2.8-3.3-4.8-6.4-4.8-5 0-7.7 4.9-7.7 9.4 0 4.6 2.7 9.3 7.8 9.3 3.3 0 5.9-1.7 6.2-5.2H56v-6.1h15.2zm9.6 11.1h7.7v5.5H74.3V23.1h6.5zm27.1 1.2l1.6 4.4h6.9L107 23.1h-7l-9.5 25.1h6.8l1.7-4.4h8.9zm-1.8-5h-5.4l2.7-8h.1l2.6 8zm27.9-7.4c-1.3-1.8-3.5-2.8-5.7-2.8-4 0-6.6 3.1-6.6 7 0 4 2.7 6.8 6.7 6.8 2.1 0 4.2-1 5.6-2.7v7.8c-2.1.7-3.7 1.2-5.7 1.2-3.5 0-6.7-1.3-9.3-3.7-2.7-2.5-4-5.8-4-9.5 0-3.4 1.3-6.7 3.7-9.2 2.4-2.5 6-4.1 9.4-4.1 2.1 0 4 .5 5.9 1.3v7.9zm4-8.4h6.4v25.1H138zm17.1 5.5v4.2h7.3v5.6h-7.3v4.3h7.7v5.5h-14.1V23.1h14.1v5.5zm24.5 9.3c3.5-.6 5.4-3.6 5.4-7.1 0-5.4-3.7-7.7-8.6-7.7h-9.6v25.1h6.4v-9.7h.1l6.1 9.7h8l-7.8-10.3zm-6.4-9.8h.6c2.1 0 4.5.4 4.5 3.1s-2.4 3.1-4.5 3.1h-.6v-6.2zm31.3-3.5h.5c2.1 0 4.5.2 4.5 2.9 0 2.5-2.1 2.9-4.1 2.9h-.9v-5.8zm4.1 23.9c5.4 0 10.7-2.1 10.7-8.3 0-4.2-1.8-7-6-7.6v-.1c2.4-1.2 3.2-3.4 3.2-6.1 0-5.7-3.5-7.8-8.8-7.8h-10.9v29.8h11.8zm-4.1-12.3h.8c2.5 0 6.3-.4 6.3 3.2 0 3.3-3.8 3.2-6.1 3.2h-1v-6.4zm32.2 8l1.6 4.4h6.9l-9.3-25.1h-7l-9.5 25.1h6.8l1.7-4.4h8.8zm-1.7-5h-5.4l2.7-8h.1l2.6 8zm12.2-15.8h6.4l11.9 15.4V23.4h6.5v25.1h-6.5l-11.8-15.4h-.1v15.4h-6.4zm42.1 0h8l-9.9 11.9 10.8 13.2h-8.4l-8.3-10.9h-.1v10.9H275V23.4h6.4v10.4h.1z"/></svg>